<svg xmlns="http://www.w3.org/2000/svg" width="350" height="64.333" viewBox="0 0 350 64.333">
  <g id="Group_125" data-name="Group 125" transform="translate(-663.699 -244)">
    <path id="Path_3" data-name="Path 3" d="M93.7,14.28h6.566V34.111h24.666V14.28H131.5V62.273h-6.566V39.829H100.265V62.273H93.7Z" transform="translate(570 237.978)" fill="#fff"/>
    <path id="Path_4" data-name="Path 4" d="M218.736,20.188q4.77,6.371,4.77,16.3,0,10.749-5.456,17.87-6.4,8.364-18.263,8.363-11.075,0-17.413-7.318-5.653-7.057-5.652-17.838a28.371,28.371,0,0,1,4.835-16.662q6.207-8.887,18.361-8.887,12.708,0,18.818,8.167M213,50.779A26.249,26.249,0,0,0,216.841,36.6q0-8.469-4.427-13.635T200.31,17.8a15.756,15.756,0,0,0-12.153,5.118q-4.705,5.117-4.7,15.089a22.056,22.056,0,0,0,4.034,13.455q4.035,5.477,13.085,5.477,8.593,0,12.431-6.164" transform="translate(534.992 238.931)" fill="#fff"/>
    <path id="Path_5" data-name="Path 5" d="M282.412,14.28V43.945a17.332,17.332,0,0,0,1.976,8.69q2.93,5.228,9.879,5.228,8.331,0,11.328-5.652a17.869,17.869,0,0,0,1.614-8.266V14.28h6.567V41.233q0,8.854-2.393,13.624-4.394,8.691-16.588,8.69t-16.556-8.69q-2.393-4.77-2.393-13.624V14.28Z" transform="translate(493.194 237.979)" fill="#fff"/>
    <path id="Path_6" data-name="Path 6" d="M365.542,45.906a13.484,13.484,0,0,0,1.856,6.632q3.116,4.77,10.984,4.77a18.78,18.78,0,0,0,6.42-1.046q5.6-2.026,5.6-7.253,0-3.92-2.374-5.587a23.523,23.523,0,0,0-7.533-2.842l-6.3-1.47q-6.171-1.437-8.735-3.169-4.431-3.006-4.431-8.985a14.021,14.021,0,0,1,4.355-10.618q4.356-4.148,12.336-4.15A21.007,21.007,0,0,1,390.2,15.833q5.136,3.643,5.135,11.647h-6.11a12.35,12.35,0,0,0-2.005-5.913q-2.85-3.756-9.678-3.757-5.513,0-7.925,2.417a7.718,7.718,0,0,0-2.412,5.619,5.521,5.521,0,0,0,2.849,5.162q1.868,1.045,8.452,2.613l6.521,1.535a19.651,19.651,0,0,1,7.28,3.039q4.432,3.365,4.432,9.769,0,7.971-5.656,11.4a24.843,24.843,0,0,1-13.143,3.43q-8.731,0-13.668-4.573-4.941-4.541-4.842-12.317Z" transform="translate(457.949 238.86)" fill="#fff"/>
    <path id="Path_7" data-name="Path 7" d="M444.942,14.28h34.827v5.881H451.28v14.57h26.333v5.554H451.28v16.27h28.978v5.717H444.942Z" transform="translate(421.892 237.978)" fill="#fff"/>
    <path id="Path_8" data-name="Path 8" d="M603.752,22.932v1.52a63.5,63.5,0,0,0-6.241,7.853c-.445.633-.874,1.271-1.3,1.91H610.92a31.909,31.909,0,0,1,3.224-11.283Z" transform="translate(358.105 234.33)" fill="#fff"/>
    <path id="Path_9" data-name="Path 9" d="M555.711,48.041q.68-1.13,1.332-2.176h-27.53V57.148h21.665a79.006,79.006,0,0,1,4.532-9.106" transform="translate(386.231 224.66)" fill="#fff"/>
    <path id="Path_10" data-name="Path 10" d="M599.9,97.078q-8.609,0-12.655-5.348H557.417a31.583,31.583,0,0,0-.3,4.086H546.735c.045-1.354.157-2.716.32-4.086H529.513v11.283h97.954V91.73H612.553q-4.05,5.345-12.655,5.348" transform="translate(386.231 205.32)" fill="#fff"/>
    <path id="Path_11" data-name="Path 11" d="M550.393,68.8h-20.88V80.081h17.82a57.159,57.159,0,0,1,3.06-11.283" transform="translate(386.231 214.99)" fill="#fff"/>
    <path id="Path_12" data-name="Path 12" d="M605.752,57.148q-.217-2.642-.219-5.6,0-3.007.225-5.682H589.995a68.531,68.531,0,0,0-4.141,7.821c-.484,1.071-.951,2.229-1.4,3.462Z" transform="translate(363.065 224.66)" fill="#fff"/>
    <path id="Path_13" data-name="Path 13" d="M564.932,25.609H539.582l.042-2.676H529.513V34.216H558.3a51.856,51.856,0,0,1,6.628-8.607" transform="translate(386.231 234.33)" fill="#fff"/>
    <path id="Path_14" data-name="Path 14" d="M606.559,80.081A31.833,31.833,0,0,1,603.352,68.8H581.163q-.932,2.819-1.764,6.129c-.467,1.856-.833,3.569-1.11,5.154Z" transform="translate(365.664 214.99)" fill="#fff"/>
    <path id="Path_15" data-name="Path 15" d="M638.546,51.547q0,3.052.176,5.6h14.207q.167-2.551.168-5.6,0-3.118-.161-5.682H638.713q-.166,2.569-.167,5.682" transform="translate(340.255 224.66)" fill="#fff"/>
    <path id="Path_16" data-name="Path 16" d="M678.455,34.216h10.464V22.933H675.246a32.019,32.019,0,0,1,3.209,11.283" transform="translate(324.78 234.33)" fill="#fff"/>
    <path id="Path_17" data-name="Path 17" d="M529.513,0V11.283h10.142l.068-4.32h35.9v4.32h11.645q4.051-5.333,12.627-5.336t12.641,5.336h14.929V0Z" transform="translate(386.231 244)" fill="#fff"/>
    <path id="Path_18" data-name="Path 18" d="M681.366,51.547q0,2.963-.219,5.6h10.258V45.865H681.142q.222,2.679.224,5.682" transform="translate(322.294 224.66)" fill="#fff"/>
    <path id="Path_19" data-name="Path 19" d="M646.113,24.529q-4.453,0-5.89,4.417a28.826,28.826,0,0,0-1.11,5.942H653.02a29.906,29.906,0,0,0-1.07-5.942q-1.385-4.417-5.838-4.417" transform="translate(340.017 233.657)" fill="#fff"/>
    <path id="Path_20" data-name="Path 20" d="M675.263,80.081h13.663V68.8H678.471a31.855,31.855,0,0,1-3.208,11.283" transform="translate(324.773 214.99)" fill="#fff"/>
    <path id="Path_21" data-name="Path 21" d="M646.125,79.274q4.452,0,5.855-4.663a32.029,32.029,0,0,0,1.04-5.813H639.141a30.8,30.8,0,0,0,1.094,5.83q1.437,4.646,5.89,4.646" transform="translate(340.004 214.99)" fill="#fff"/>
  </g>
</svg>
